<mxfile host="app.diagrams.net" agent="Mozilla/5.0 (X11; Linux x86_64) AppleWebKit/537.36 (KHTML, like Gecko) Chrome/132.0.0.0 Safari/537.36" version="26.0.10">
  <diagram name="第 1 页" id="NWASNr4ZqGe1hIQ7F_i_">
    <mxGraphModel dx="1002" dy="623" grid="1" gridSize="10" guides="1" tooltips="1" connect="1" arrows="1" fold="1" page="1" pageScale="1" pageWidth="827" pageHeight="1169" math="0" shadow="0">
      <root>
        <mxCell id="0" />
        <mxCell id="1" parent="0" />
        <mxCell id="C8RlpKUdhSTZ-Sb-sBrI-3" style="edgeStyle=orthogonalEdgeStyle;rounded=0;orthogonalLoop=1;jettySize=auto;html=1;entryX=0.5;entryY=0;entryDx=0;entryDy=0;" edge="1" parent="1" source="C8RlpKUdhSTZ-Sb-sBrI-1" target="C8RlpKUdhSTZ-Sb-sBrI-2">
          <mxGeometry relative="1" as="geometry">
            <mxPoint x="320" y="270" as="targetPoint" />
          </mxGeometry>
        </mxCell>
        <mxCell id="C8RlpKUdhSTZ-Sb-sBrI-1" value="开始" style="rounded=1;whiteSpace=wrap;html=1;arcSize=50;" vertex="1" parent="1">
          <mxGeometry x="280" y="200" width="80" height="40" as="geometry" />
        </mxCell>
        <mxCell id="C8RlpKUdhSTZ-Sb-sBrI-5" style="edgeStyle=orthogonalEdgeStyle;rounded=0;orthogonalLoop=1;jettySize=auto;html=1;entryX=0.5;entryY=0;entryDx=0;entryDy=0;" edge="1" parent="1" source="C8RlpKUdhSTZ-Sb-sBrI-2" target="C8RlpKUdhSTZ-Sb-sBrI-4">
          <mxGeometry relative="1" as="geometry" />
        </mxCell>
        <mxCell id="C8RlpKUdhSTZ-Sb-sBrI-2" value="result=1" style="rounded=0;whiteSpace=wrap;html=1;" vertex="1" parent="1">
          <mxGeometry x="280" y="280" width="80" height="40" as="geometry" />
        </mxCell>
        <mxCell id="C8RlpKUdhSTZ-Sb-sBrI-7" style="edgeStyle=orthogonalEdgeStyle;rounded=0;orthogonalLoop=1;jettySize=auto;html=1;entryX=0.5;entryY=0;entryDx=0;entryDy=0;" edge="1" parent="1" source="C8RlpKUdhSTZ-Sb-sBrI-4" target="C8RlpKUdhSTZ-Sb-sBrI-6">
          <mxGeometry relative="1" as="geometry" />
        </mxCell>
        <mxCell id="C8RlpKUdhSTZ-Sb-sBrI-17" style="edgeStyle=orthogonalEdgeStyle;rounded=0;orthogonalLoop=1;jettySize=auto;html=1;" edge="1" parent="1" source="C8RlpKUdhSTZ-Sb-sBrI-4" target="C8RlpKUdhSTZ-Sb-sBrI-16">
          <mxGeometry relative="1" as="geometry">
            <Array as="points">
              <mxPoint x="380" y="380" />
              <mxPoint x="380" y="700" />
              <mxPoint x="320" y="700" />
            </Array>
          </mxGeometry>
        </mxCell>
        <mxCell id="C8RlpKUdhSTZ-Sb-sBrI-4" value="exponet&amp;gt;0" style="rhombus;whiteSpace=wrap;html=1;" vertex="1" parent="1">
          <mxGeometry x="280" y="360" width="80" height="40" as="geometry" />
        </mxCell>
        <mxCell id="C8RlpKUdhSTZ-Sb-sBrI-9" style="edgeStyle=orthogonalEdgeStyle;rounded=0;orthogonalLoop=1;jettySize=auto;html=1;entryX=0.5;entryY=0;entryDx=0;entryDy=0;" edge="1" parent="1" source="C8RlpKUdhSTZ-Sb-sBrI-6" target="C8RlpKUdhSTZ-Sb-sBrI-8">
          <mxGeometry relative="1" as="geometry" />
        </mxCell>
        <mxCell id="C8RlpKUdhSTZ-Sb-sBrI-12" style="edgeStyle=orthogonalEdgeStyle;rounded=0;orthogonalLoop=1;jettySize=auto;html=1;entryX=0;entryY=0.5;entryDx=0;entryDy=0;" edge="1" parent="1" source="C8RlpKUdhSTZ-Sb-sBrI-6" target="C8RlpKUdhSTZ-Sb-sBrI-10">
          <mxGeometry relative="1" as="geometry">
            <Array as="points">
              <mxPoint x="260" y="460" />
              <mxPoint x="260" y="620" />
            </Array>
          </mxGeometry>
        </mxCell>
        <mxCell id="C8RlpKUdhSTZ-Sb-sBrI-6" value="&lt;font style=&quot;font-size: 11px;&quot;&gt;exponent is odd&lt;/font&gt;" style="rhombus;whiteSpace=wrap;html=1;" vertex="1" parent="1">
          <mxGeometry x="280" y="440" width="80" height="40" as="geometry" />
        </mxCell>
        <mxCell id="C8RlpKUdhSTZ-Sb-sBrI-11" style="edgeStyle=orthogonalEdgeStyle;rounded=0;orthogonalLoop=1;jettySize=auto;html=1;entryX=0.5;entryY=0;entryDx=0;entryDy=0;" edge="1" parent="1" source="C8RlpKUdhSTZ-Sb-sBrI-8" target="C8RlpKUdhSTZ-Sb-sBrI-10">
          <mxGeometry relative="1" as="geometry" />
        </mxCell>
        <mxCell id="C8RlpKUdhSTZ-Sb-sBrI-8" value="result = (result * base) % mod" style="rounded=0;whiteSpace=wrap;html=1;" vertex="1" parent="1">
          <mxGeometry x="280" y="520" width="80" height="40" as="geometry" />
        </mxCell>
        <mxCell id="C8RlpKUdhSTZ-Sb-sBrI-19" style="edgeStyle=orthogonalEdgeStyle;rounded=0;orthogonalLoop=1;jettySize=auto;html=1;" edge="1" parent="1" source="C8RlpKUdhSTZ-Sb-sBrI-10">
          <mxGeometry relative="1" as="geometry">
            <mxPoint x="320" y="340" as="targetPoint" />
            <Array as="points">
              <mxPoint x="320" y="650" />
              <mxPoint x="230" y="650" />
              <mxPoint x="230" y="340" />
            </Array>
          </mxGeometry>
        </mxCell>
        <mxCell id="C8RlpKUdhSTZ-Sb-sBrI-10" value="base = (base * base) %mod&lt;div&gt;exponent //= 2&lt;/div&gt;" style="rounded=0;whiteSpace=wrap;html=1;" vertex="1" parent="1">
          <mxGeometry x="280" y="600" width="80" height="40" as="geometry" />
        </mxCell>
        <mxCell id="C8RlpKUdhSTZ-Sb-sBrI-13" value="Y" style="text;html=1;align=center;verticalAlign=middle;whiteSpace=wrap;rounded=0;" vertex="1" parent="1">
          <mxGeometry x="300" y="480" width="60" height="30" as="geometry" />
        </mxCell>
        <mxCell id="C8RlpKUdhSTZ-Sb-sBrI-14" value="N" style="text;html=1;align=center;verticalAlign=middle;whiteSpace=wrap;rounded=0;" vertex="1" parent="1">
          <mxGeometry x="220" y="520" width="60" height="30" as="geometry" />
        </mxCell>
        <mxCell id="C8RlpKUdhSTZ-Sb-sBrI-15" value="Y" style="text;html=1;align=center;verticalAlign=middle;whiteSpace=wrap;rounded=0;" vertex="1" parent="1">
          <mxGeometry x="300" y="400" width="60" height="30" as="geometry" />
        </mxCell>
        <mxCell id="C8RlpKUdhSTZ-Sb-sBrI-16" value="return result" style="rounded=1;whiteSpace=wrap;html=1;arcSize=50;" vertex="1" parent="1">
          <mxGeometry x="280" y="720" width="80" height="40" as="geometry" />
        </mxCell>
      </root>
    </mxGraphModel>
  </diagram>
</mxfile>
